<?xml version="1.0" encoding="UTF-8" standalone="no"?>
<svg
   xmlns:dc="http://purl.org/dc/elements/1.1/"
   xmlns:cc="http://creativecommons.org/ns#"
   xmlns:rdf="http://www.w3.org/1999/02/22-rdf-syntax-ns#"
   xmlns:svg="http://www.w3.org/2000/svg"
   xmlns="http://www.w3.org/2000/svg"
   xmlns:sodipodi="http://sodipodi.sourceforge.net/DTD/sodipodi-0.dtd"
   xmlns:inkscape="http://www.inkscape.org/namespaces/inkscape"
   width="2500"
   height="2500"
   viewBox="0 0 192.756 192.756"
   version="1.1"
   id="svg10"
   sodipodi:docname="sadia-logo.svg"
   inkscape:version="0.92.4 (5da689c313, 2019-01-14)"
   inkscape:export-filename="G:\Users\suitedoalex\sites\sadia-logo-0.png"
   inkscape:export-xdpi="157.28641"
   inkscape:export-ydpi="157.28641">
  <metadata
     id="metadata16">
    <rdf:RDF>
      <cc:Work
         rdf:about="">
        <dc:format>image/svg+xml</dc:format>
        <dc:type
           rdf:resource="http://purl.org/dc/dcmitype/StillImage" />
        <dc:title></dc:title>
      </cc:Work>
    </rdf:RDF>
  </metadata>
  <defs
     id="defs14" />
  <sodipodi:namedview
     pagecolor="#ffffff"
     bordercolor="#666666"
     borderopacity="1"
     objecttolerance="10"
     gridtolerance="10"
     guidetolerance="10"
     inkscape:pageopacity="0"
     inkscape:pageshadow="2"
     inkscape:window-width="1600"
     inkscape:window-height="837"
     id="namedview12"
     showgrid="false"
     inkscape:zoom="0.0944"
     inkscape:cx="1250"
     inkscape:cy="1250"
     inkscape:window-x="-8"
     inkscape:window-y="-8"
     inkscape:window-maximized="1"
     inkscape:current-layer="svg10" />
  <g
     fill-rule="evenodd"
     clip-rule="evenodd"
     id="g8">
    <path
       d="m 67.888077,122.38705 c 1.703924,-2.97497 2.352359,-6.7293 1.688782,-10.21197 a 13.640301,13.640301 0 0 0 -1.793886,-4.66018 c 0.0018,-1.71194 -0.111338,-4.10884 0.94326,-6.24921 0.789167,-1.487483 1.549832,-1.943525 2.546534,-2.461917 1.322701,-0.657343 3.227925,-0.961965 5.106428,-0.958402 H 84.31273 V 92.557238 H 69.436127 v -8.925783 h 13.884355 c 1.273712,0 2.550096,0.09709 3.600241,0.283245 1.790323,0.342922 3.049784,0.8052 4.363578,2.025469 1.939071,1.944416 2.580381,4.237098 2.614228,6.617069 V 128.58904 H 75.386947 c -0.89338,0 -1.789433,-0.0926 -2.540299,-0.25919 -1.96312,-0.29394 -3.626072,-2.02013 -4.327059,-3.73652 a 8.8117731,8.8117731 0 0 1 -0.631512,-2.20628 z m 8.490227,-16.27769 v 14.54526 H 84.31184 V 106.10936 Z M 115.38775,68.755742 H 125.304 V 128.9195 h -16.8611 c -1.28173,0 -2.57148,-0.13717 -3.63944,-0.39013 -1.06617,-0.25029 -1.91145,-0.60925 -2.64985,-1.10092 -2.712206,-1.97826 -3.573521,-4.53726 -3.626963,-7.10339 V 92.226786 c 0.03652,-1.826842 0.283245,-3.696438 1.482133,-5.351373 1.90879,-2.39066 4.61922,-3.577974 7.10963,-3.57352 h 8.26845 V 68.755742 Z m -7.27531,23.471044 v 28.098274 h 7.27531 V 92.226786 Z m 31.40636,-8.924893 v 45.287147 h -9.91803 V 83.301893 Z m 19.50294,0.329562 c 1.27194,0 2.5501,0.09709 3.59935,0.283245 1.79033,0.342922 3.05157,0.8052 4.36269,2.025469 1.94175,1.944416 2.58127,4.237098 2.61512,6.617069 v 36.031802 h -18.5098 c -0.97622,0 -1.9551,-0.11312 -2.76298,-0.31352 -1.37792,-0.36163 -2.38531,-0.88002 -3.44614,-2.46816 -0.89784,-1.35833 -1.4091,-3.13529 -1.39485,-4.82229 v -14.87571 c 0,-0.96909 0.0891,-1.93996 0.25385,-2.76743 0.30106,-1.37436 0.66803,-2.43698 1.72441,-3.507608 a 5.6070062,5.6070062 0 0 1 1.51153,-1.029659 c 1.32181,-0.657342 3.22525,-0.961964 5.10376,-0.958401 h 7.93442 v -5.289024 h -14.87571 v -8.925783 z m -6.94306,22.477905 v 14.54526 h 7.93442 v -14.54526 z"
       id="path4"
       inkscape:connector-curvature="0"
       style="fill:#cc2229;stroke-width:0.89070791" />
    <path
       d="m 134.48007,68.510798 c 1.21225,0.01425 2.56257,0.338469 3.80421,1.549831 1.82863,2.100289 2.46548,4.665528 0,7.636039 -2.09672,1.829514 -4.6486,2.467261 -7.6111,0 -1.82506,-2.098508 -2.46548,-4.663747 0.004,-7.636039 1.0448,-1.051926 2.45924,-1.554285 3.80332,-1.549831 z M 57.719756,62.513661 c 2.91974,-0.05968 6.936833,-0.02316 10.39367,0.292152 v 9.917142 c -3.310761,-0.277901 -6.644681,-0.271666 -8.80732,-0.309966 -2.163529,-0.04008 -3.165575,-0.0045 -4.083005,0.01247 -0.917429,0.01781 -1.750241,0.01781 -3.039986,0.08016 a 43.834407,43.834407 0 0 0 -4.960352,0.497906 c -1.926601,0.312639 -4.034016,0.814998 -5.671137,1.351204 -1.638012,0.535315 -2.80573,1.104478 -3.828262,1.766274 -5.29615,3.708907 -6.234956,7.944223 -3.67417,12.022775 1.072412,1.922147 2.767429,3.103226 4.405441,3.807776 1.810809,0.788276 3.357968,1.360111 4.963024,2.061989 a 66.981233,66.981233 0 0 0 2.923303,1.131199 c 2.483294,0.93079 6.710594,2.226769 10.515698,3.949399 a 36.391652,36.391652 0 0 1 5.255176,2.960709 c 6.773834,4.69047 7.522919,8.51606 7.718875,12.98296 -0.07304,3.27425 -0.837266,6.61975 -3.980574,10.1131 a 15.702289,15.702289 0 0 1 -2.860953,2.41471 14.974581,14.974581 0 0 1 -3.439914,1.6772 c -1.279057,0.43467 -2.718441,0.7482 -4.449086,0.90674 -3.343718,0.28859 -8.661244,0.0641 -13.534307,-0.92544 -2.386206,-0.51305 -4.471353,-1.25412 -6.458523,-2.04239 -1.98895,-0.79006 -3.880814,-1.62109 -5.333558,-2.46994 -1.453636,-0.8524 -2.427179,-1.7538 -3.314324,-2.73269 l 4.628118,-8.59355 c 1.617525,1.17752 3.349061,2.19382 5.120679,3.07383 1.769837,0.87824 3.590444,1.60595 5.612351,2.25439 2.021907,0.65021 4.246004,1.22472 6.112928,1.5623 1.867815,0.33579 3.379346,0.43288 4.622774,0.40527 1.243428,-0.0258 2.218753,-0.17903 3.071161,-0.42932 a 7.9335352,7.9335352 0 0 0 2.175108,-0.99492 c 2.799495,-2.11721 2.520704,-4.28609 1.343188,-6.85578 a 6.6286481,6.6286481 0 0 0 -1.440275,-1.80368 c -1.954213,-1.86158 -6.098677,-2.96962 -9.335509,-4.3333 -1.040347,-0.44179 -2.061098,-0.94326 -3.585099,-1.59704 -1.523111,-0.652 -3.551253,-1.45987 -4.898894,-1.99697 -1.348531,-0.53798 -2.016562,-0.80698 -3.283149,-1.39128 -1.264805,-0.58431 -3.129057,-1.487485 -4.685123,-2.433417 A 23.340109,23.340109 0 0 1 28.054729,95.92233 c -5.064565,-4.789337 -5.080597,-8.42966 -4.804478,-13.013242 0.425758,-3.557488 1.681657,-7.499761 4.948773,-11.207778 2.042393,-2.307824 4.636135,-4.148917 7.214734,-5.453804 2.912615,-1.548051 6.563626,-2.314059 10.354479,-2.786135 2.008546,-0.25207 3.960978,-0.405272 5.362952,-0.523736 1.401084,-0.117573 2.25171,-0.2013 3.188735,-0.268103 a 59.789658,59.789658 0 0 1 3.399832,-0.155874 z"
       id="path6"
       inkscape:connector-curvature="0"
       style="stroke-width:0.89070791" />
  </g>
</svg>
