<?xml version="1.0" encoding="UTF-8" standalone="no"?>
<!-- Created with Inkscape (http://www.inkscape.org/) -->

<svg
   xmlns:dc="http://purl.org/dc/elements/1.1/"
   xmlns:cc="http://creativecommons.org/ns#"
   xmlns:rdf="http://www.w3.org/1999/02/22-rdf-syntax-ns#"
   xmlns:svg="http://www.w3.org/2000/svg"
   xmlns="http://www.w3.org/2000/svg"
   xmlns:sodipodi="http://sodipodi.sourceforge.net/DTD/sodipodi-0.dtd"
   xmlns:inkscape="http://www.inkscape.org/namespaces/inkscape"
   width="700mm"
   height="700mm"
   viewBox="0 0 700 700"
   version="1.1"
   id="svg26502"
   inkscape:export-filename="C:\Users\suitedoalex\sites\sas-airlines-logo-0.png"
   inkscape:export-xdpi="148.63"
   inkscape:export-ydpi="148.63"
   inkscape:version="0.92.4 (5da689c313, 2019-01-14)"
   sodipodi:docname="sas-airlines-logo.svg">
  <defs
     id="defs26496" />
  <sodipodi:namedview
     id="base"
     pagecolor="#ffffff"
     bordercolor="#666666"
     borderopacity="1.0"
     inkscape:pageopacity="0.0"
     inkscape:pageshadow="2"
     inkscape:zoom="0.12374369"
     inkscape:cx="908.72878"
     inkscape:cy="897.2769"
     inkscape:document-units="mm"
     inkscape:current-layer="layer1"
     showgrid="false"
     inkscape:window-width="1600"
     inkscape:window-height="837"
     inkscape:window-x="-8"
     inkscape:window-y="-8"
     inkscape:window-maximized="1" />
  <metadata
     id="metadata26499">
    <rdf:RDF>
      <cc:Work
         rdf:about="">
        <dc:format>image/svg+xml</dc:format>
        <dc:type
           rdf:resource="http://purl.org/dc/dcmitype/StillImage" />
        <dc:title></dc:title>
      </cc:Work>
    </rdf:RDF>
  </metadata>
  <g
     inkscape:label="Layer 1"
     inkscape:groupmode="layer"
     id="layer1"
     transform="translate(0,403)">
    <g
       id="g468"
       transform="matrix(34.76361,0,0,-34.76361,342.32678,-21.457024)">
      <path
         d="m 0,0 -1.159,-0.001 c 0,0 -0.008,-0.001 -0.012,0.006 -0.005,0.007 0.004,0.017 0.004,0.017 l 1.541,1.976 c 0,0 0.011,0.016 0.024,0.016 0.012,0 0.007,-0.018 0.007,-0.018 L 0.019,0.015 c 0,0 -0.001,-0.008 -0.005,-0.011 C 0.01,0 0,0 0,0 M 2.523,3.508 C 1.938,3.508 1.135,3.507 1.026,3.507 0.951,3.507 0.92,3.465 0.92,3.465 l -4.125,-5.116 c -0.022,-0.031 -0.018,-0.061 0.023,-0.061 h 0.611 c 0.061,0 0.067,0.017 0.078,0.033 l 0.877,1.125 c 0,0 0.015,0.022 0.032,0.022 h 1.474 c 0,0 0.024,0.001 0.019,-0.022 -0.005,-0.021 -0.215,-1.103 -0.215,-1.103 -0.003,-0.014 0.001,-0.055 0.052,-0.055 0.192,10e-4 1.579,10e-4 1.782,10e-4 0.025,0 0.034,0.009 0.039,0.033 l 1.002,5.132 c 0,0 0.019,0.054 -0.046,0.054"
         style="fill:#00509e;fill-opacity:1;fill-rule:nonzero;stroke:none"
         id="path470"
         inkscape:connector-curvature="0" />
    </g>
    <g
       id="g472"
       transform="matrix(34.76361,0,0,-34.76361,92.427897,15.37029)">
      <path
         d="M 0,0 C -0.013,-0.061 0.018,-0.113 0.13,-0.204 0.338,-0.376 0.957,-0.749 1.94,-0.749 3.708,-0.748 4.349,0.395 4.125,1.364 4.065,1.623 3.734,2.963 3.686,3.152 3.547,3.701 3.813,4.096 4.337,4.096 4.785,4.096 5.064,3.927 5.309,3.773 5.355,3.744 5.389,3.728 5.4,3.781 5.408,3.813 5.489,4.23 5.489,4.23 c 0,0 0.023,0.081 -0.082,0.136 C 5.245,4.451 4.84,4.68 3.987,4.68 2.4,4.681 1.725,3.664 2.002,2.56 2.09,2.207 2.444,0.885 2.445,0.63 2.445,0.531 2.497,-0.142 1.684,-0.142 0.929,-0.143 0.41,0.373 0.234,0.551 0.205,0.58 0.166,0.564 0.148,0.499 0.139,0.466 0,0 0,0"
         style="fill:#00509e;fill-opacity:1;fill-rule:nonzero;stroke:none"
         id="path474"
         inkscape:connector-curvature="0" />
    </g>
    <g
       id="g476"
       transform="matrix(34.76361,0,0,-34.76361,418.50705,16.293632)">
      <path
         d="m 0,0 c -0.015,-0.061 0.018,-0.113 0.13,-0.204 0.209,-0.173 0.779,-0.517 1.761,-0.517 1.768,0 2.409,1.144 2.185,2.113 -0.06,0.259 -0.391,1.599 -0.439,1.788 -0.138,0.549 0.127,0.944 0.652,0.945 0.446,0 0.726,-0.17 0.97,-0.323 0.046,-0.029 0.081,-0.045 0.093,0.008 0.007,0.031 0.087,0.448 0.087,0.448 0,0 0.024,0.081 -0.081,0.136 C 5.195,4.479 4.79,4.708 3.937,4.709 2.352,4.71 1.677,3.691 1.953,2.587 2.041,2.235 2.395,0.913 2.396,0.658 2.396,0.561 2.448,-0.114 1.635,-0.114 0.88,-0.115 0.381,0.383 0.205,0.561 0.166,0.599 0.108,0.584 0.099,0.527 0.094,0.493 0,0 0,0"
         style="fill:#00509e;fill-opacity:1;fill-rule:nonzero;stroke:none"
         id="path478"
         inkscape:connector-curvature="0" />
    </g>
  </g>
</svg>
